<svg width="184" height="178" viewBox="0 0 184 178" xmlns="http://www.w3.org/2000/svg" xmlns:xlink="http://www.w3.org/1999/xlink"><svg width="74" height="68" viewBox="0 0 74 68" id="icon-usp" xmlns="http://www.w3.org/2000/svg"><defs><style>.acls-1{fill:#fff}.acls-2{fill:#62bdc2}</style></defs><g id="aGroup_410" data-name="Group 410" transform="translate(-206.079 -919.476)"><g id="aGroup_396" data-name="Group 396" transform="translate(206.079 919.476)"><path id="aPath_140" data-name="Path 140" class="acls-1" d="M633.947 337.456h-32.69m0 0h-2.4l18.883-14.942 18.884 14.942h-2.681m.086 4.583v8.182l4.586-3.221v-4.958h11.041l-5.018-4.088-26.893-21.3-32.01 25.391h11.141v11.148l4.582 3.246v-14.4m32.576 0h-32.576" transform="translate(-585.735 -316.648)"/></g><g id="aGroup_397" data-name="Group 397" transform="translate(217.219 953.843)"><path id="aPath_141" data-name="Path 141" class="acls-2" d="M611.058 361.973l-16.407-11.621v5.656l16.376 11.49 25.364-17.785v-5.56l-25.333 17.82z" transform="translate(-594.651 -344.152)"/></g></g></svg><svg width="110" height="110" viewBox="0 0 110 110" id="test" x="74" y="68" xmlns="http://www.w3.org/2000/svg"><path fill="#6D6E71" d="M100 46.335V18.856L50 40.719 0 18.856v27.479l50 34.81z"/></svg></svg>