<?xml version="1.0" standalone="no"?>
<!DOCTYPE svg PUBLIC "-//W3C//DTD SVG 20010904//EN"
 "http://www.w3.org/TR/2001/REC-SVG-20010904/DTD/svg10.dtd">
<svg version="1.0" xmlns="http://www.w3.org/2000/svg"
 width="700.000000pt" height="700.000000pt" viewBox="0 0 700.000000 700.000000"
 preserveAspectRatio="xMidYMid meet">
<metadata>
Created by potrace 1.14, written by Peter Selinger 2001-2017
</metadata>
<g transform="translate(0.000000,700.000000) scale(0.100000,-0.100000)"
fill="#000000" stroke="none">
<path d="M3319 6986 c-2 -2 -47 -6 -99 -10 -52 -4 -154 -15 -226 -26 -1121
-162 -2103 -872 -2614 -1889 -175 -349 -307 -792 -344 -1156 -28 -266 -28
-597 0 -820 11 -86 51 -317 60 -347 3 -10 7 -30 10 -45 9 -52 75 -275 110
-370 244 -675 682 -1251 1270 -1670 504 -359 1125 -585 1734 -630 187 -14 626
-6 683 12 7 2 37 6 67 10 204 21 512 98 750 187 165 61 436 192 585 283 484
294 895 706 1183 1185 337 561 508 1194 496 1840 -1 107 -5 211 -8 230 -2 19
-7 69 -10 110 -8 98 -31 241 -57 360 -195 889 -727 1667 -1479 2164 -495 327
-999 505 -1615 571 -65 7 -490 16 -496 11z"/>
</g>
</svg>
